<svg xmlns="http://www.w3.org/2000/svg" version="1.1" xmlns:xlink="http://www.w3.org/1999/xlink" xmlns:svgjs="http://svgjs.com/svgjs" width="1440" height="428" preserveAspectRatio="none" viewBox="0 0 1440 428"><g mask="url(&quot;#SvgjsMask1020&quot;)" fill="none"><rect width="1440" height="428" x="0" y="0" fill="url(#SvgjsLinearGradient1021)"></rect><path d="M1440 0L1336.59 0L1440 9.74z" fill="rgba(255, 255, 255, .1)"></path><path d="M1336.59 0L1440 9.74L1440 56.85L604.8199999999999 0z" fill="rgba(255, 255, 255, .075)"></path><path d="M604.82 0L1440 56.85L1440 259.67L513.3000000000001 0z" fill="rgba(255, 255, 255, .05)"></path><path d="M513.3000000000001 0L1440 259.67L1440 279.99L380.12000000000006 0z" fill="rgba(255, 255, 255, .025)"></path><path d="M0 428L162.18 428L0 257.05z" fill="rgba(0, 0, 0, .1)"></path><path d="M0 257.05L162.18 428L566.62 428L0 184.69z" fill="rgba(0, 0, 0, .075)"></path><path d="M0 184.69L566.62 428L983.09 428L0 175.10999999999999z" fill="rgba(0, 0, 0, .05)"></path><path d="M0 175.10999999999999L983.09 428L1191.4 428L0 105.04999999999998z" fill="rgba(0, 0, 0, .025)"></path></g><defs><mask id="SvgjsMask1020"><rect width="1440" height="428" fill="#ffffff"></rect></mask><linearGradient x1="17.57%" y1="-59.11%" x2="82.43%" y2="159.11%" gradientUnits="userSpaceOnUse" id="SvgjsLinearGradient1021"><stop stop-color="rgba(0, 55, 35, 1)" offset="0"></stop><stop stop-color="rgba(18, 102, 52, 1)" offset="1"></stop></linearGradient></defs></svg>